<svg width="33" height="16" viewBox="0 0 33 16" fill="none" xmlns="http://www.w3.org/2000/svg">
<path d="M1.65039 6.90576C1.09811 6.90576 0.650391 7.35348 0.650391 7.90576C0.650391 8.45805 1.09811 8.90576 1.65039 8.90576V6.90576ZM32.056 8.61287C32.4465 8.22234 32.4465 7.58918 32.056 7.19865L25.692 0.834694C25.3015 0.44417 24.6683 0.44417 24.2778 0.834694C23.8873 1.22522 23.8873 1.85838 24.2778 2.24891L29.9347 7.90576L24.2778 13.5626C23.8873 13.9531 23.8873 14.5863 24.2778 14.9768C24.6683 15.3674 25.3015 15.3674 25.692 14.9768L32.056 8.61287ZM1.65039 8.90576L31.3489 8.90576V6.90576L1.65039 6.90576V8.90576Z" fill="white"/>
</svg>
