<svg width="33" height="16" viewBox="0 0 33 16" fill="none" xmlns="http://www.w3.org/2000/svg">
<path d="M31.3496 6.88135C31.9019 6.88135 32.3496 7.32906 32.3496 7.88135C32.3496 8.43363 31.9019 8.88135 31.3496 8.88135V6.88135ZM0.944017 8.58845C0.553493 8.19793 0.553493 7.56477 0.944017 7.17424L7.30798 0.81028C7.6985 0.419755 8.33167 0.419755 8.72219 0.81028C9.11272 1.2008 9.11272 1.83397 8.72219 2.22449L3.06534 7.88135L8.72219 13.5382C9.11272 13.9287 9.11272 14.5619 8.72219 14.9524C8.33167 15.3429 7.6985 15.3429 7.30798 14.9524L0.944017 8.58845ZM31.3496 8.88135L1.65112 8.88135V6.88135L31.3496 6.88135V8.88135Z" fill="#FF8139"/>
</svg>
