<svg width="33" height="16" viewBox="0 0 33 16" fill="none" xmlns="http://www.w3.org/2000/svg">
<path d="M1.49219 6.9707C0.939903 6.9707 0.492188 7.41842 0.492188 7.9707C0.492188 8.52299 0.939903 8.9707 1.49219 8.9707V6.9707ZM31.8978 8.67781C32.2883 8.28729 32.2883 7.65412 31.8978 7.2636L25.5338 0.899635C25.1433 0.509111 24.5101 0.509111 24.1196 0.899635C23.7291 1.29016 23.7291 1.92332 24.1196 2.31385L29.7765 7.9707L24.1196 13.6276C23.7291 14.0181 23.7291 14.6512 24.1196 15.0418C24.5101 15.4323 25.1433 15.4323 25.5338 15.0418L31.8978 8.67781ZM1.49219 8.9707L31.1907 8.9707V6.9707L1.49219 6.9707V8.9707Z" fill="#4666A9"/>
</svg>
