<svg width="33" height="16" viewBox="0 0 33 16" fill="none" xmlns="http://www.w3.org/2000/svg">
<path d="M31.1289 6.9707C31.6812 6.9707 32.1289 7.41842 32.1289 7.9707C32.1289 8.52299 31.6812 8.9707 31.1289 8.9707V6.9707ZM0.723314 8.67781C0.33279 8.28729 0.33279 7.65412 0.723314 7.2636L7.08728 0.899635C7.4778 0.509111 8.11097 0.509111 8.50149 0.899635C8.89201 1.29016 8.89201 1.92332 8.50149 2.31385L2.84464 7.9707L8.50149 13.6276C8.89201 14.0181 8.89201 14.6512 8.50149 15.0418C8.11097 15.4323 7.4778 15.4323 7.08728 15.0418L0.723314 8.67781ZM31.1289 8.9707L1.43042 8.9707V6.9707L31.1289 6.9707V8.9707Z" fill="#4666A9"/>
</svg>
