<svg width="19" height="19" viewBox="0 0 19 19" fill="none" xmlns="http://www.w3.org/2000/svg">
<path d="M0.730014 16.899C0.398068 17.2309 0.398068 17.7691 0.730014 18.101C1.06196 18.433 1.60015 18.433 1.9321 18.101L0.730014 16.899ZM18.4445 1.23654C18.4445 0.767102 18.064 0.386544 17.5945 0.386545L9.94451 0.386545C9.47507 0.386545 9.09451 0.767103 9.09451 1.23654C9.09451 1.70599 9.47507 2.08654 9.94451 2.08654L16.7445 2.08654L16.7445 8.88654C16.7445 9.35599 17.1251 9.73654 17.5945 9.73654C18.064 9.73654 18.4445 9.35599 18.4445 8.88654L18.4445 1.23654ZM1.9321 18.101L18.1956 1.83759L16.9935 0.635504L0.730014 16.899L1.9321 18.101Z" fill="white"/>
</svg>
