<svg width="99" height="165" viewBox="0 0 99 165" fill="none" xmlns="http://www.w3.org/2000/svg">
<circle opacity="0.5" cx="9" cy="9" r="9" transform="matrix(1 0 0 -1 44 52.5867)" fill="#4666A9"/>
<circle opacity="0.5" cx="9" cy="9" r="9" transform="matrix(1 0 0 -1 3.5 21.5867)" fill="#4666A9"/>
<circle opacity="0.5" cx="9" cy="9" r="9" transform="matrix(1 0 0 -1 44 18.5867)" fill="#4666A9"/>
<circle cx="89.5" cy="110.587" r="9" transform="rotate(180 89.5 110.587)" fill="#4666A9"/>
<circle cx="9" cy="9" r="9" transform="matrix(1 0 0 -1 44 164.669)" fill="#4666A9"/>
<circle opacity="0.5" cx="89.5" cy="83.5867" r="9" transform="rotate(180 89.5 83.5867)" fill="#4666A9"/>
<circle opacity="0.5" cx="9" cy="9" r="9" transform="matrix(1 0 0 -1 44 129.587)" fill="#4666A9"/>
<circle cx="53" cy="83.5867" r="12" fill="#4666A9"/>
<circle opacity="0.5" cx="12.5" cy="46.5867" r="12" fill="#4666A9"/>
<circle opacity="0.5" cx="12.5" cy="83.5867" r="12" fill="#4666A9"/>
</svg>
