<svg width="29" height="29" viewBox="0 0 29 29" fill="none" xmlns="http://www.w3.org/2000/svg">
<path fill-rule="evenodd" clip-rule="evenodd" d="M8.375 0.93457C8.85825 0.93457 9.25 1.32632 9.25 1.80957V4.43457H19.75V1.80957C19.75 1.32632 20.1418 0.93457 20.625 0.93457C21.1082 0.93457 21.5 1.32632 21.5 1.80957V4.43457H24.7083C25.8359 4.43457 26.75 5.34866 26.75 6.47624V25.1429C26.75 26.2705 25.8359 27.1846 24.7083 27.1846H4.29167C3.16409 27.1846 2.25 26.2705 2.25 25.1429V6.47624C2.25 5.34866 3.16408 4.43457 4.29167 4.43457H7.5V1.80957C7.5 1.32632 7.89175 0.93457 8.375 0.93457ZM4.29167 6.18457C4.13058 6.18457 4 6.31515 4 6.47624V10.2679H25V6.47624C25 6.31515 24.8694 6.18457 24.7083 6.18457H4.29167ZM25 12.0179H4V25.1429C4 25.304 4.13058 25.4346 4.29167 25.4346H24.7083C24.8694 25.4346 25 25.304 25 25.1429V12.0179Z" fill="#202020"/>
</svg>
