<svg width="28" height="28" viewBox="0 0 28 28" fill="none" xmlns="http://www.w3.org/2000/svg">
<path fill-rule="evenodd" clip-rule="evenodd" d="M7.875 0C8.35825 0 8.75 0.391751 8.75 0.875V3.5H19.25V0.875C19.25 0.391751 19.6418 0 20.125 0C20.6082 0 21 0.391751 21 0.875V3.5H24.2083C25.3359 3.5 26.25 4.41409 26.25 5.54167V24.2083C26.25 25.3359 25.3359 26.25 24.2083 26.25H3.79167C2.66409 26.25 1.75 25.3359 1.75 24.2083V5.54167C1.75 4.41409 2.66408 3.5 3.79167 3.5H7V0.875C7 0.391751 7.39175 0 7.875 0ZM3.79167 5.25C3.63058 5.25 3.5 5.38058 3.5 5.54167V9.33333H24.5V5.54167C24.5 5.38058 24.3694 5.25 24.2083 5.25H3.79167ZM24.5 11.0833H3.5V24.2083C3.5 24.3694 3.63058 24.5 3.79167 24.5H24.2083C24.3694 24.5 24.5 24.3694 24.5 24.2083V11.0833Z" fill="#333333"/>
</svg>
