<svg width="29" height="29" viewBox="0 0 29 29" fill="none" xmlns="http://www.w3.org/2000/svg">
<path fill-rule="evenodd" clip-rule="evenodd" d="M14.4997 3.85132C10.9559 3.85132 8.08311 6.72417 8.08311 10.268C8.08311 12.4724 9.19467 14.4171 10.8879 15.5723C6.96254 17.0102 4.13502 20.7247 4.0043 25.117C3.98992 25.6 4.36985 26.0032 4.85288 26.0176C5.33592 26.032 5.73915 25.6521 5.75353 25.169C5.89369 20.4597 9.75594 16.6847 14.4996 16.6847C19.2432 16.6847 23.1055 20.4597 23.2456 25.169C23.26 25.6521 23.6632 26.032 24.1463 26.0176C24.6293 26.0032 25.0092 25.6 24.9949 25.117C24.8641 20.7248 22.0367 17.0103 18.1114 15.5724C19.8047 14.4172 20.9163 12.4724 20.9163 10.268C20.9163 6.72417 18.0435 3.85132 14.4997 3.85132ZM9.83311 10.268C9.83311 7.69064 11.9224 5.60132 14.4997 5.60132C17.077 5.60132 19.1663 7.69064 19.1663 10.268C19.1663 12.8453 17.077 14.9347 14.4997 14.9347C11.9224 14.9347 9.83311 12.8453 9.83311 10.268Z" fill="#24292E"/>
</svg>
