<svg width="46" height="46" viewBox="0 0 46 46" fill="none" xmlns="http://www.w3.org/2000/svg">
<g clip-path="url(#clip0_207_1161)">
<path d="M0.916016 22.7943C0.916016 10.3678 10.9896 0.29425 23.416 0.29425C35.8424 0.29425 45.916 10.3678 45.916 22.7943C45.916 35.2207 35.8424 45.2943 23.416 45.2943C10.9896 45.2943 0.916016 35.2207 0.916016 22.7943Z" fill="#4567AA"/>
<path fill-rule="evenodd" clip-rule="evenodd" d="M22.9607 0.29425C22.8544 9.55091 22.2491 14.7314 18.8011 18.1793C15.3531 21.6273 10.1727 22.2326 0.916016 22.3389V23.6823C10.1727 23.7885 15.3531 24.3938 18.8011 27.8418C22.195 31.2357 22.8347 36.3082 22.9553 45.2943H24.3094C24.43 36.3082 25.0697 31.2357 28.4636 27.8418C31.8575 24.4479 36.9299 23.8082 45.916 23.6877V22.3335C36.9299 22.2129 31.8575 21.5732 28.4636 18.1793C25.0156 14.7314 24.4103 9.55091 24.304 0.29425H22.9607Z" fill="white"/>
</g>
<defs>
<clipPath id="clip0_207_1161">
<rect width="45" height="45" fill="white" transform="translate(0.916016 0.29425)"/>
</clipPath>
</defs>
</svg>
