<svg width="29" height="29" viewBox="0 0 29 29" fill="none" xmlns="http://www.w3.org/2000/svg">
<path fill-rule="evenodd" clip-rule="evenodd" d="M11.6016 1.74274C6.28582 1.74274 1.97656 6.052 1.97656 11.3677C1.97656 16.6835 6.28582 20.9927 11.6016 20.9927C13.9444 20.9927 16.0917 20.1557 17.7607 18.7643L24.3995 25.4031C24.7412 25.7448 25.2952 25.7448 25.6369 25.4031C25.9787 25.0614 25.9787 24.5074 25.6369 24.1657L18.9982 17.5269C20.3895 15.8579 21.2266 13.7105 21.2266 11.3677C21.2266 6.052 16.9173 1.74274 11.6016 1.74274ZM3.72656 11.3677C3.72656 7.0185 7.25232 3.49274 11.6016 3.49274C15.9508 3.49274 19.4766 7.0185 19.4766 11.3677C19.4766 15.717 15.9508 19.2427 11.6016 19.2427C7.25232 19.2427 3.72656 15.717 3.72656 11.3677Z" fill="#4567AA"/>
</svg>
