<svg width="16" height="16" viewBox="0 0 16 16" fill="none" xmlns="http://www.w3.org/2000/svg">
<path fill-rule="evenodd" clip-rule="evenodd" d="M1.79226 7.70288C1.79226 4.12558 4.69223 1.22561 8.26953 1.22561C11.8468 1.22561 14.7468 4.12558 14.7468 7.70288C14.7468 11.2802 11.8468 14.1802 8.26953 14.1802C4.69223 14.1802 1.79226 11.2802 1.79226 7.70288ZM8.26953 0.202881C4.1274 0.202881 0.769531 3.56075 0.769531 7.70288C0.769531 11.845 4.1274 15.2029 8.26953 15.2029C12.4117 15.2029 15.7695 11.845 15.7695 7.70288C15.7695 3.56075 12.4117 0.202881 8.26953 0.202881ZM8.26864 11.7939C10.528 11.7939 12.3596 9.96238 12.3596 7.70303C12.3596 5.44368 10.528 3.61212 8.26864 3.61212C6.0093 3.61212 4.17773 5.44368 4.17773 7.70303C4.17773 9.96238 6.0093 11.7939 8.26864 11.7939Z" fill="#4567AA"/>
</svg>
