<svg width="28" height="28" viewBox="0 0 28 28" fill="none" xmlns="http://www.w3.org/2000/svg">
<path fill-rule="evenodd" clip-rule="evenodd" d="M4.0836 9.33334C4.0836 5.78952 6.95638 2.91667 10.5002 2.91667C14.044 2.91667 16.9167 5.78952 16.9167 9.33334C16.9167 11.5377 15.8052 13.4825 14.1119 14.6377C18.0372 16.0757 20.8646 19.7901 20.9953 24.1823C21.0097 24.6653 20.6298 25.0686 20.1468 25.083C19.6637 25.0973 19.2605 24.7174 19.2461 24.2344C19.106 19.525 15.2437 15.75 10.5001 15.75C5.75643 15.75 1.89418 19.525 1.75401 24.2344C1.73964 24.7174 1.33641 25.0973 0.853372 25.083C0.370336 25.0686 -0.00958687 24.6653 0.00478944 24.1823C0.135512 19.7901 2.96303 16.0756 6.88834 14.6377C5.19515 13.4825 4.0836 11.5377 4.0836 9.33334ZM10.5002 4.66667C7.92291 4.66667 5.8336 6.756 5.8336 9.33334C5.8336 11.9107 7.92291 14 10.5002 14C13.0774 14 15.1667 11.9107 15.1667 9.33334C15.1667 6.756 13.0774 4.66667 10.5002 4.66667Z" fill="#333333"/>
<path d="M20.1718 9.33334C19.9995 9.33334 19.8306 9.3456 19.6658 9.36917C19.1874 9.4376 18.7441 9.10526 18.6757 8.62688C18.6073 8.1485 18.9396 7.70522 19.418 7.6368C19.6647 7.60153 19.9164 7.58334 20.1718 7.58334C23.0906 7.58334 25.4568 9.94953 25.4568 12.8683C25.4568 14.5901 24.6333 16.1185 23.361 17.0828C26.081 18.3021 27.9768 21.0329 27.9768 24.2083C27.9768 24.6916 27.585 25.0833 27.1018 25.0833C26.6185 25.0833 26.2268 24.6916 26.2268 24.2083C26.2268 21.4715 24.4103 19.1566 21.9153 18.4079L21.2918 18.2208V16.2655L21.7704 16.0223C22.9213 15.4375 23.7068 14.2439 23.7068 12.8683C23.7068 10.916 22.1241 9.33334 20.1718 9.33334Z" fill="#333333"/>
</svg>
