<svg width="29" height="29" viewBox="0 0 29 29" fill="none" xmlns="http://www.w3.org/2000/svg">
<path fill-rule="evenodd" clip-rule="evenodd" d="M4.58311 10.2677C4.58311 6.72393 7.45589 3.85107 10.9997 3.85107C14.5435 3.85107 17.4163 6.72393 17.4163 10.2677C17.4163 12.4721 16.3047 14.4169 14.6114 15.5721C18.5367 17.0101 21.3641 20.7246 21.4949 25.1167C21.5092 25.5997 21.1293 26.003 20.6463 26.0174C20.1632 26.0317 19.76 25.6518 19.7456 25.1688C19.6055 20.4594 15.7432 16.6844 10.9996 16.6844C6.25594 16.6844 2.39369 20.4594 2.25353 25.1688C2.23915 25.6518 1.83592 26.0317 1.35288 26.0174C0.869848 26.003 0.489925 25.5997 0.504301 25.1167C0.635024 20.7245 3.46254 17.01 7.38785 15.5721C5.69467 14.4169 4.58311 12.4721 4.58311 10.2677ZM10.9997 5.60107C8.42242 5.60107 6.33311 7.6904 6.33311 10.2677C6.33311 12.8451 8.42242 14.9344 10.9997 14.9344C13.577 14.9344 15.6663 12.8451 15.6663 10.2677C15.6663 7.6904 13.577 5.60107 10.9997 5.60107Z" fill="#333333"/>
<path d="M20.6713 10.2677C20.499 10.2677 20.3301 10.28 20.1653 10.3036C19.6869 10.372 19.2436 10.0397 19.1752 9.56128C19.1068 9.0829 19.4391 8.63963 19.9175 8.57121C20.1642 8.53593 20.4159 8.51774 20.6713 8.51774C23.5901 8.51774 25.9563 10.8839 25.9563 13.8027C25.9563 15.5245 25.1328 17.0529 23.8605 18.0172C26.5806 19.2365 28.4763 21.9673 28.4763 25.1427C28.4763 25.626 28.0845 26.0177 27.6013 26.0177C27.118 26.0177 26.7263 25.626 26.7263 25.1427C26.7263 22.4059 24.9098 20.091 22.4148 19.3423L21.7913 19.1552V17.1999L22.2699 16.9567C23.4208 16.3719 24.2063 15.1783 24.2063 13.8027C24.2063 11.8504 22.6236 10.2677 20.6713 10.2677Z" fill="#333333"/>
</svg>
