<svg width="24" height="25" viewBox="0 0 24 25" fill="none" xmlns="http://www.w3.org/2000/svg">
<path fill-rule="evenodd" clip-rule="evenodd" d="M3.50037 8.25659C3.50037 5.21904 5.96275 2.75659 9.00029 2.75659C12.0378 2.75659 14.5002 5.21904 14.5002 8.25659C14.5002 10.1461 13.5474 11.813 12.0961 12.8032C15.4606 14.0357 17.8841 17.2196 17.9961 20.9843C18.0085 21.3983 17.6828 21.7439 17.2688 21.7563C16.8548 21.7686 16.5091 21.4429 16.4968 21.0289C16.3767 16.9923 13.0662 13.7566 9.0002 13.7566C4.93422 13.7566 1.62372 16.9923 1.50358 21.0289C1.49126 21.4429 1.14563 21.7686 0.731601 21.7563C0.317571 21.7439 -0.0080778 21.3983 0.00424474 20.9843C0.116293 17.2195 2.53988 14.0356 5.90443 12.8032C4.45313 11.813 3.50037 10.1461 3.50037 8.25659ZM9.00029 4.25659C6.7912 4.25659 5.00037 6.04744 5.00037 8.25659C5.00037 10.4657 6.7912 12.2566 9.00029 12.2566C11.2094 12.2566 13.0002 10.4657 13.0002 8.25659C13.0002 6.04744 11.2094 4.25659 9.00029 4.25659Z" fill="#4567AA"/>
<path d="M17.2903 8.25659C17.1426 8.25659 16.9978 8.2671 16.8565 8.28731C16.4465 8.34596 16.0665 8.06109 16.0079 7.65105C15.9492 7.24101 16.2341 6.86107 16.6441 6.80242C16.8556 6.77218 17.0713 6.75659 17.2903 6.75659C19.7921 6.75659 21.8202 8.78475 21.8202 11.2866C21.8202 12.7624 21.1144 14.0725 20.0239 14.899C22.3553 15.9441 23.9802 18.2848 23.9802 21.0066C23.9802 21.4208 23.6444 21.7566 23.2302 21.7566C22.816 21.7566 22.4802 21.4208 22.4802 21.0066C22.4802 18.6607 20.9233 16.6765 18.7846 16.0348L18.2502 15.8744V14.1984L18.6605 13.99C19.647 13.4887 20.3202 12.4656 20.3202 11.2866C20.3202 9.61316 18.9637 8.25659 17.2903 8.25659Z" fill="#4567AA"/>
</svg>
