<svg width="28" height="28" viewBox="0 0 28 28" fill="none" xmlns="http://www.w3.org/2000/svg">
<path fill-rule="evenodd" clip-rule="evenodd" d="M13.9997 2.91669C10.4559 2.91669 7.58311 5.78954 7.58311 9.33335C7.58311 11.5377 8.69467 13.4825 10.3879 14.6377C6.46254 16.0756 3.63502 19.7901 3.5043 24.1823C3.48992 24.6654 3.86985 25.0686 4.35288 25.083C4.83592 25.0973 5.23915 24.7174 5.25353 24.2344C5.39369 19.5251 9.25594 15.75 13.9996 15.75C18.7432 15.75 22.6055 19.5251 22.7456 24.2344C22.76 24.7174 23.1632 25.0973 23.6463 25.083C24.1293 25.0686 24.5092 24.6654 24.4949 24.1823C24.3641 19.7902 21.5367 16.0757 17.6114 14.6377C19.3047 13.4825 20.4163 11.5378 20.4163 9.33335C20.4163 5.78954 17.5435 2.91669 13.9997 2.91669ZM9.33311 9.33335C9.33311 6.75601 11.4224 4.66669 13.9997 4.66669C16.577 4.66669 18.6663 6.75601 18.6663 9.33335C18.6663 11.9107 16.577 14 13.9997 14C11.4224 14 9.33311 11.9107 9.33311 9.33335Z" fill="#4567AA"/>
</svg>
