<svg width="142" height="175" viewBox="0 0 142 175" fill="none" xmlns="http://www.w3.org/2000/svg">
<circle cx="132.999" cy="9" r="9" transform="rotate(180 132.999 9)" fill="#4567AA"/>
<circle cx="132.999" cy="45" r="9" transform="rotate(180 132.999 45)" fill="#4567AA"/>
<circle opacity="0.5" cx="93.9985" cy="65" r="9" transform="rotate(180 93.9985 65)" fill="#4567AA"/>
<circle opacity="0.5" cx="54.9985" cy="65" r="9" transform="rotate(180 54.9985 65)" fill="#4567AA"/>
<circle opacity="0.5" cx="54.9985" cy="133" r="9" transform="rotate(180 54.9985 133)" fill="#4567AA"/>
<circle cx="93.9985" cy="100" r="9" transform="rotate(180 93.9985 100)" fill="#4567AA"/>
<circle cx="93.9985" cy="166" r="9" transform="rotate(180 93.9985 166)" fill="#4567AA"/>
<circle cx="93.9985" cy="133" r="9" transform="rotate(180 93.9985 133)" fill="#4567AA"/>
<circle opacity="0.5" cx="12" cy="12" r="12" transform="matrix(-1 0 0 1 66.9985 88)" fill="#4567AA"/>
<circle cx="10.9985" cy="100" r="10" fill="#4567AA"/>
</svg>
