<svg width="25" height="25" viewBox="0 0 25 25" fill="none" xmlns="http://www.w3.org/2000/svg">
<path d="M22.5004 17.8547V20.8547C22.5016 21.1332 22.4445 21.4088 22.3329 21.664C22.2214 21.9192 22.0577 22.1483 21.8525 22.3365C21.6473 22.5248 21.405 22.6682 21.1412 22.7574C20.8773 22.8466 20.5978 22.8797 20.3204 22.8547C17.2433 22.5203 14.2874 21.4688 11.6904 19.7847C9.27425 18.2493 7.22576 16.2008 5.69042 13.7847C4.0004 11.1759 2.94866 8.20566 2.62042 5.11467C2.59543 4.83813 2.6283 4.55943 2.71692 4.29629C2.80555 4.03316 2.94799 3.79136 3.13519 3.58629C3.32238 3.38122 3.55023 3.21738 3.80421 3.10519C4.0582 2.993 4.33276 2.93493 4.61042 2.93467H7.61042C8.09573 2.92989 8.56621 3.10175 8.93418 3.4182C9.30215 3.73465 9.5425 4.17411 9.61042 4.65467C9.73704 5.61473 9.97187 6.55739 10.3104 7.46467C10.445 7.82259 10.4741 8.21158 10.3943 8.58555C10.3146 8.95951 10.1293 9.30278 9.86042 9.57467L8.59042 10.8447C10.014 13.3482 12.0869 15.4211 14.5904 16.8447L15.8604 15.5747C16.1323 15.3058 16.4756 15.1205 16.8495 15.0408C17.2235 14.961 17.6125 14.9901 17.9704 15.1247C18.8777 15.4632 19.8204 15.698 20.7804 15.8247C21.2662 15.8932 21.7098 16.1379 22.027 16.5122C22.3441 16.8865 22.5126 17.3642 22.5004 17.8547Z" stroke="#202020" stroke-width="1.6" stroke-linecap="round" stroke-linejoin="round"/>
</svg>
