<svg width="46" height="46" viewBox="0 0 46 46" fill="none" xmlns="http://www.w3.org/2000/svg">
<g clip-path="url(#clip0_375_2019)">
<path d="M0 22.2216C0 12.0392 0 6.94808 3.23354 3.78483C6.46708 0.621582 11.6714 0.621582 22.08 0.621582H23.92C34.3286 0.621582 39.5329 0.621582 42.7665 3.78483C46 6.94808 46 12.0392 46 22.2216V24.0216C46 34.204 46 39.2951 42.7665 42.4584C39.5329 45.6216 34.3286 45.6216 23.92 45.6216H22.08C11.6714 45.6216 6.46708 45.6216 3.23354 42.4584C0 39.2951 0 34.204 0 24.0216V22.2216Z" fill="#4567AA"/>
<path d="M24.3962 33.0216C13.7091 33.0216 7.61337 25.927 7.35938 14.1216H12.7127C12.8886 22.7864 16.8351 26.4567 19.9612 27.2135V14.1216H25.0021V21.5946C28.0891 21.2729 31.332 17.8675 32.4261 14.1216H37.4669C36.6268 18.7378 33.11 22.1432 30.6091 23.5432C33.11 24.6783 37.1154 27.6486 38.6394 33.0216H33.0904C31.8986 29.427 28.9292 26.6459 25.0021 26.2675V33.0216H24.3962Z" fill="white"/>
</g>
<defs>
<clipPath id="clip0_375_2019">
<rect width="46" height="45" fill="white" transform="translate(0 0.621582)"/>
</clipPath>
</defs>
</svg>
