<svg width="54" height="54" viewBox="0 0 54 54" fill="none" xmlns="http://www.w3.org/2000/svg">
<g clip-path="url(#clip0_207_1159)">
<path d="M22.116 34.5206V19.0678L35.896 26.7942L22.116 34.5206Z" fill="white"/>
<path d="M52.7979 14.4009C52.4963 13.3124 51.9057 12.32 51.0852 11.5229C50.2648 10.7258 49.2432 10.1521 48.1228 9.85911C43.9966 8.77423 27.416 8.77423 27.416 8.77423C27.416 8.77423 10.8355 8.77423 6.70927 9.85911C5.58884 10.1521 4.56726 10.7258 3.7468 11.5229C2.92633 12.32 2.33575 13.3124 2.03417 14.4009C1.26371 18.489 0.88983 22.6383 0.91744 26.7942C0.88983 30.9502 1.26371 35.0995 2.03417 39.1876C2.33575 40.2761 2.92633 41.2685 3.7468 42.0656C4.56726 42.8626 5.58884 43.4364 6.70927 43.7294C10.8355 44.8142 27.416 44.8142 27.416 44.8142C27.416 44.8142 43.9966 44.8142 48.1228 43.7294C49.2432 43.4364 50.2648 42.8626 51.0852 42.0656C51.9057 41.2685 52.4963 40.2761 52.7979 39.1876C53.5683 35.0995 53.9422 30.9502 53.9146 26.7942C53.9422 22.6383 53.5683 18.489 52.7979 14.4009ZM22.1163 34.5171V19.0714L35.8766 26.7942L22.1163 34.5171Z" fill="#4567AA"/>
</g>
<defs>
<clipPath id="clip0_207_1159">
<rect width="53" height="53" fill="white" transform="translate(0.916016 0.29425)"/>
</clipPath>
</defs>
</svg>
