<svg width="143" height="212" viewBox="0 0 143 212" fill="none" xmlns="http://www.w3.org/2000/svg">
<circle cx="133.695" cy="9.35681" r="9" transform="rotate(180 133.695 9.35681)" fill="#4666A9"/>
<circle cx="133.695" cy="45.3568" r="9" transform="rotate(180 133.695 45.3568)" fill="#4666A9"/>
<circle cx="133.695" cy="81.3568" r="9" transform="rotate(180 133.695 81.3568)" fill="#4666A9"/>
<circle opacity="0.5" cx="94.6953" cy="101.357" r="9" transform="rotate(180 94.6953 101.357)" fill="#4666A9"/>
<circle opacity="0.5" cx="94.6953" cy="136.357" r="9" transform="rotate(180 94.6953 136.357)" fill="#4666A9"/>
<circle cx="94.6953" cy="202.357" r="9" transform="rotate(180 94.6953 202.357)" fill="#4666A9"/>
<circle opacity="0.5" cx="94.6953" cy="169.357" r="9" transform="rotate(180 94.6953 169.357)" fill="#4666A9"/>
<circle cx="12" cy="12" r="12" transform="matrix(-1 0 0 1 106.695 46.3568)" fill="#4666A9"/>
<circle opacity="0.5" cx="12" cy="12" r="12" transform="matrix(-1 0 0 1 67.6953 85.3568)" fill="#4666A9"/>
<circle opacity="0.5" cx="12" cy="12" r="12" transform="matrix(-1 0 0 1 67.6953 124.357)" fill="#4666A9"/>
<circle cx="10.6953" cy="136.357" r="10" fill="#4666A9"/>
</svg>
